<svg id="Capa_1" enable-background="new 0 0 512 512" height="512" viewBox="0 0 512 512" width="512" xmlns="http://www.w3.org/2000/svg" xmlns:xlink="http://www.w3.org/1999/xlink"><linearGradient id="SVGID_1_" gradientUnits="userSpaceOnUse" x1="256" x2="256" y1="512" y2="0"><stop offset="0" stop-color="#addcff"/><stop offset=".5028" stop-color="#eaf6ff"/><stop offset="1" stop-color="#eaf6ff"/></linearGradient><linearGradient id="SVGID_2_" gradientUnits="userSpaceOnUse" x1="256" x2="256" y1="105" y2="407"><stop offset="0" stop-color="#5558ff"/><stop offset="1" stop-color="#00c0ff"/></linearGradient><g><g><circle cx="256" cy="256" fill="url(#SVGID_1_)" r="256"/></g><g><g><path d="m335.941 264.882c-39.181 0-71.059 31.877-71.059 71.059 0 39.181 31.878 71.059 71.059 71.059s71.059-31.877 71.059-71.059c0-39.181-31.878-71.059-71.059-71.059zm-26.647 79.941c-4.905 0-8.882-3.977-8.882-8.882 0-4.907 3.977-8.883 8.882-8.883s8.882 3.976 8.882 8.883c.001 4.906-3.977 8.882-8.882 8.882zm26.647 26.648c-4.905 0-8.882-3.977-8.882-8.882 0-4.907 3.977-8.882 8.882-8.882s8.882 3.976 8.882 8.882c0 4.905-3.977 8.882-8.882 8.882zm0-53.295c-4.905 0-8.882-3.977-8.882-8.882 0-4.906 3.977-8.882 8.882-8.882s8.882 3.976 8.882 8.882c0 4.905-3.977 8.882-8.882 8.882zm26.647 26.647c-4.905 0-8.882-3.977-8.882-8.882 0-4.907 3.977-8.883 8.882-8.883s8.882 3.976 8.882 8.883c.001 4.906-3.977 8.882-8.882 8.882zm-186.529-239.823c-39.181 0-71.059 31.877-71.059 71.059s31.878 71.059 71.059 71.059 71.059-31.877 71.059-71.059-31.878-71.059-71.059-71.059zm-26.647 79.941c-4.905 0-8.882-3.978-8.882-8.883 0-4.906 3.977-8.882 8.882-8.882s8.882 3.976 8.882 8.882-3.977 8.883-8.882 8.883zm26.647 26.647c-4.905 0-8.882-3.977-8.882-8.882 0-4.906 3.977-8.883 8.882-8.883s8.882 3.977 8.882 8.883c0 4.905-3.977 8.882-8.882 8.882zm0-53.294c-4.905 0-8.882-3.977-8.882-8.882 0-4.906 3.977-8.882 8.882-8.882s8.882 3.976 8.882 8.882c0 4.905-3.977 8.882-8.882 8.882zm26.647 26.647c-4.905 0-8.882-3.978-8.882-8.883 0-4.906 3.977-8.882 8.882-8.882s8.882 3.976 8.882 8.882-3.977 8.883-8.882 8.883zm133.235 62.177c39.181 0 71.059-31.877 71.059-71.059s-31.878-71.059-71.059-71.059-71.059 31.877-71.059 71.059c0 39.181 31.878 71.059 71.059 71.059zm12.561-96.183c3.469-3.468 9.093-3.468 12.561 0 3.47 3.469 3.47 9.093 0 12.563-3.469 3.469-9.093 3.469-12.561 0-3.468-3.47-3.468-9.094 0-12.563zm-37.683 37.685c3.469-3.469 9.093-3.469 12.561 0s3.469 9.093 0 12.562c-3.469 3.468-9.093 3.468-12.561 0-3.47-3.469-3.47-9.093 0-12.562zm-134.76 76.262c-39.181 0-71.059 31.877-71.059 71.059s31.878 71.059 71.059 71.059 71.059-31.877 71.059-71.059c0-39.181-31.878-71.059-71.059-71.059zm-12.561 96.181c-3.469 3.469-9.093 3.469-12.561 0-3.47-3.468-3.47-9.092 0-12.561 3.469-3.469 9.093-3.469 12.561 0s3.468 9.093 0 12.561zm37.683-37.683c-3.469 3.469-9.093 3.469-12.561 0-3.469-3.47-3.469-9.094 0-12.563 3.469-3.468 9.093-3.468 12.561 0 3.47 3.469 3.47 9.093 0 12.563z" fill="url(#SVGID_2_)"/></g></g></g></svg>