<svg version="1.2" baseProfile="tiny-ps" xmlns="http://www.w3.org/2000/svg" viewBox="0 0 1511 1412" width="1511" height="1412">
	<title>macquarie-logo-svg</title>
	<style>
		tspan { white-space:pre }
		.shp0 { fill: #000000 } 
	</style>
	<path id="Layer" fill-rule="evenodd" class="shp0" d="M1511 705.85C1511 1102.28 1179.41 1411.69 755.5 1411.69C331.59 1411.69 0 1102.6 0 705.85C0 309.09 331.59 0 755.5 0C1179.41 0 1511 309.42 1511 705.85ZM297.78 1192.86C267.83 1160.34 241.08 1125.02 217.89 1087.39C194.7 1049.77 175.17 1010 159.59 968.65C144 927.3 132.42 884.55 125 841C117.59 797.44 114.37 753.27 115.41 709.09C114.16 664.65 117.22 620.2 124.53 576.34C131.84 532.49 143.38 489.44 158.97 447.8C174.56 406.16 194.15 366.12 217.44 328.23C240.74 290.35 267.64 254.8 297.78 222.08C298.4 221.53 298.9 220.86 299.24 220.1C299.58 219.34 299.76 218.52 299.76 217.7C299.76 216.87 299.58 216.05 299.24 215.29C298.9 214.54 298.4 213.86 297.78 213.31C295.83 209.74 291.93 210.07 288.03 213.31C213.98 272.7 154.22 347.93 113.16 433.46C72.1 518.98 50.78 612.62 50.78 707.47C50.78 802.32 72.1 895.96 113.16 981.48C154.22 1067.01 213.98 1142.24 288.03 1201.63C291.93 1201.63 295.83 1201.63 297.78 1201.63C298.4 1201.08 298.9 1200.41 299.24 1199.65C299.58 1198.89 299.76 1198.07 299.76 1197.25C299.76 1196.42 299.58 1195.6 299.24 1194.84C298.9 1194.08 298.4 1193.41 297.78 1192.86ZM529.89 1000.33C508.81 982.04 489.76 961.53 473.1 939.14C456.43 916.76 442.24 892.65 430.76 867.22C419.29 841.79 410.61 815.19 404.87 787.9C399.12 760.6 396.35 732.76 396.61 704.87C396.33 676.98 399.08 649.14 404.82 621.84C410.55 594.53 419.23 567.93 430.7 542.5C442.18 517.07 456.38 492.95 473.05 470.57C489.73 448.2 508.79 427.69 529.89 409.42C531.52 406.82 533.14 403.9 531.52 401.95C529.89 400 525.99 399.35 521.44 401.95C416.11 465.59 332.56 567.86 332.56 705.52C332.56 843.19 416.11 945.46 521.44 1008.77C525.99 1012.02 529.89 1011.37 531.52 1008.77C533.14 1006.5 532.49 1003.9 529.89 1000.33ZM1062.06 705.85C1062.06 518.83 919.34 378.25 755.5 378.25C591.66 378.25 448.29 518.83 448.29 705.85C448.29 892.86 592.96 1034.74 755.5 1034.74C919.34 1034.74 1062.06 892.86 1062.06 705.85ZM1178.44 706.82C1178.44 569.16 1094.89 468.18 989.24 403.25C985.01 400 981.11 400.98 979.49 403.25C977.86 405.52 978.51 408.12 981.11 410.72C1002.21 428.99 1021.27 449.5 1037.95 471.87C1054.62 494.25 1068.82 518.37 1080.3 543.8C1091.77 569.23 1100.45 595.83 1106.18 623.13C1111.92 650.44 1114.67 678.28 1114.4 706.17C1114.65 734.06 1111.88 761.9 1106.14 789.2C1100.39 816.49 1091.71 843.09 1080.24 868.52C1068.77 893.95 1054.57 918.06 1037.91 940.44C1021.24 962.82 1002.2 983.34 981.11 1001.63C979.49 1004.22 977.86 1006.82 979.49 1009.1C981.11 1011.37 985.01 1012.02 989.24 1009.1C1094.57 945.78 1178.44 844.48 1178.44 706.82ZM1222.32 1196.76C1296.32 1137.34 1356.03 1062.09 1397.05 976.57C1438.08 891.05 1459.37 797.43 1459.37 702.6C1459.37 607.77 1438.08 514.15 1397.05 428.63C1356.03 343.11 1296.32 267.87 1222.32 208.44C1218.42 206.82 1214.52 206.49 1212.57 208.44C1211.95 208.99 1211.45 209.67 1211.11 210.42C1210.77 211.18 1210.59 212 1210.59 212.83C1210.59 213.65 1210.77 214.47 1211.11 215.23C1211.45 215.99 1211.95 216.66 1212.57 217.21C1242.71 249.93 1269.61 285.48 1292.91 323.36C1316.21 361.25 1335.79 401.29 1351.38 442.93C1366.97 484.57 1378.51 527.62 1385.82 571.47C1393.13 615.33 1396.19 659.78 1394.95 704.22C1396.19 748.66 1393.13 793.12 1385.82 836.98C1378.51 880.83 1366.97 923.88 1351.38 965.52C1335.79 1007.16 1316.21 1047.2 1292.91 1085.09C1269.61 1122.97 1242.71 1158.52 1212.57 1191.24C1211.95 1191.79 1211.45 1192.46 1211.11 1193.22C1210.77 1193.97 1210.59 1194.79 1210.59 1195.62C1210.59 1196.45 1210.77 1197.27 1211.11 1198.03C1211.45 1198.78 1211.95 1199.46 1212.57 1200C1214.52 1203.25 1218.42 1203.25 1222.32 1200L1222.32 1196.76Z" />
</svg>